<svg version="1.1" id="Layer_1" xmlns="http://www.w3.org/2000/svg" xmlns:xlink="http://www.w3.org/1999/xlink" x="0px" y="26px" width="99px" height="56px" viewBox="0 26 99 56" enable-background="0 26 99 56" xml:space="preserve"><desc>Copyright Opto 22</desc> <desc>Created with Snap</desc><defs><linearGradient x1="14.6447" y1="85.3553" x2="85.3553" y2="14.6447" gradientUnits="userSpaceOnUse" id="Sjbq0mb6h2n"><stop offset="0%" stop-color="#3bbeff"/><stop offset="49.46%" stop-color="#a3daff"/><stop offset="100%" stop-color="#003e66"/></linearGradient><linearGradient x1="14.6447" y1="85.3553" x2="85.3553" y2="14.6447" gradientUnits="userSpaceOnUse" id="Sjbq0mb6h2r"><stop offset="0%" stop-color="#cccccc"/><stop offset="49.46%" stop-color="#ffffff"/><stop offset="100%" stop-color="#000000"/></linearGradient><linearGradient x1="14.6447" y1="85.3553" x2="85.3553" y2="14.6447" gradientUnits="userSpaceOnUse" id="Sjbq0mb6h2v"><stop offset="0%" stop-color="#3bbeff"/><stop offset="49.46%" stop-color="#a3daff"/><stop offset="100%" stop-color="#003e66"/></linearGradient><linearGradient x1="50" y1="1" x2="50" y2="98" gradientUnits="userSpaceOnUse" id="Sjbq0mb6hg6"><stop offset="0%" stop-color="#cccccc"/><stop offset="100%" stop-color="#000000"/></linearGradient><radialGradient cx="50" cy="50" r="40.9275" gradientUnits="userSpaceOnUse" id="Sjbq0mb6hgc"><stop offset="0%" stop-color="#cccccc"/><stop offset="100%" stop-color="#000000"/></radialGradient><linearGradient x1="50" y1="1" x2="50" y2="98" gradientUnits="userSpaceOnUse" id="Sjbq0mb6hgf"><stop offset="0%" stop-color="#3bbeff"/><stop offset="100%" stop-color="#003e66"/></linearGradient><radialGradient cx="50" cy="50" r="40.9275" gradientUnits="userSpaceOnUse" id="Sjbq0mb6hgi"><stop offset="0%" stop-color="#3bbeff"/><stop offset="100%" stop-color="#003e66"/></radialGradient><linearGradient x1="50" y1="1" x2="50" y2="98" gradientUnits="userSpaceOnUse" id="Sjbq0mb6hgl"><stop offset="0%" stop-color="#96ff94"/><stop offset="100%" stop-color="#012400"/></linearGradient><radialGradient cx="50" cy="50" r="40.9275" gradientUnits="userSpaceOnUse" id="Sjbq0mb6hgo"><stop offset="0%" stop-color="#96ff94"/><stop offset="100%" stop-color="#012400"/></radialGradient><linearGradient x1="50" y1="1" x2="50" y2="98" gradientUnits="userSpaceOnUse" id="Sjbq0mb6hgr"><stop offset="0%" stop-color="#ff5600"/><stop offset="100%" stop-color="#1a0c00"/></linearGradient><radialGradient cx="50" cy="50" r="40.9275" gradientUnits="userSpaceOnUse" id="Sjbq0mb6hgu"><stop offset="0%" stop-color="#ff5600"/><stop offset="100%" stop-color="#1a0c00"/></radialGradient><linearGradient x1="50" y1="1" x2="50" y2="98" gradientUnits="userSpaceOnUse" id="Sjbq0mb6hgx"><stop offset="0%" stop-color="#cccccc"/><stop offset="100%" stop-color="#000000"/></linearGradient><radialGradient cx="50" cy="50" r="40.9275" gradientUnits="userSpaceOnUse" id="Sjbq0mb6hh0"><stop offset="0%" stop-color="#cccccc"/><stop offset="100%" stop-color="#000000"/></radialGradient><linearGradient x1="50" y1="1" x2="50" y2="98" gradientUnits="userSpaceOnUse" id="Sjbq0mb6hh3"><stop offset="0%" stop-color="#3bbeff"/><stop offset="100%" stop-color="#003e66"/></linearGradient><radialGradient cx="50" cy="50" r="40.9275" gradientUnits="userSpaceOnUse" id="Sjbq0mb6hh6"><stop offset="0%" stop-color="#3bbeff"/><stop offset="100%" stop-color="#003e66"/></radialGradient><linearGradient x1="50" y1="1" x2="50" y2="98" gradientUnits="userSpaceOnUse" id="Sjbq0mb6hh9"><stop offset="0%" stop-color="#96ff94"/><stop offset="100%" stop-color="#012400"/></linearGradient><radialGradient cx="50" cy="50" r="40.9275" gradientUnits="userSpaceOnUse" id="Sjbq0mb6hhc"><stop offset="0%" stop-color="#96ff94"/><stop offset="100%" stop-color="#012400"/></radialGradient><linearGradient x1="50" y1="1" x2="50" y2="98" gradientUnits="userSpaceOnUse" id="Sjbq0mb6hhf"><stop offset="0%" stop-color="#ff5600"/><stop offset="100%" stop-color="#1a0c00"/></linearGradient><radialGradient cx="50" cy="50" r="40.9275" gradientUnits="userSpaceOnUse" id="Sjbq0mb6hhi"><stop offset="0%" stop-color="#ff5600"/><stop offset="100%" stop-color="#1a0c00"/></radialGradient><linearGradient x1="50" y1="1" x2="50" y2="98" gradientUnits="userSpaceOnUse" id="Sjbq0mb6hhl"><stop offset="0%" stop-color="#fcf7b0"/><stop offset="100%" stop-color="#7a7410"/></linearGradient><radialGradient cx="50" cy="50" r="40.9275" gradientUnits="userSpaceOnUse" id="Sjbq0mb6hho"><stop offset="0%" stop-color="#fcf7b0"/><stop offset="100%" stop-color="#7a7410"/></radialGradient></defs><g xmlns="http://www.w3.org/2000/svg">
<g id="shape">
<path d="M98.355,32.47c-2.012,0-4.561,4.235-5.086,9.792l-43.11,1.391v-6.366h-3.64v-1.768h0.842v-6.132
	c11.219,1.263,22.379,2.453,26.604,2.453c9.011,0,12.612,0,13.516-2.704H47.589c-0.082-1.588-1.38-2.851-2.991-2.851
	c-1.475,0-2.696,1.058-2.956,2.455C31.026,27.53,21.438,26.43,19.001,26.43c-5.41,0-15.325,0-18.03,2.705h40.63
	c-0.003,0.053-0.016,0.102-0.016,0.155h0.244v6.228h0.841v1.768h-3.634v5.439c-2.36-1.103-5-1.732-7.781-1.732
	c-10.036,0-18.171,7.97-18.171,17.799c0,9.826,8.135,17.796,18.171,17.796c1.412,0,2.786-0.163,4.114-0.447
	C35,76.94,34.654,77.88,34.47,78.876c-6.284-0.019-10.743-0.106-11.509-0.298c-2.517-0.624-4.546-3.954-4.566-3.988l-1.715,1.028
	c0.031,0.052,0.286,0.473,0.724,1.051l-0.723,0.435c0.099,0.165,2.47,4.064,5.799,4.904c1.084,0.269,7.417,0.357,15.311,0.357
	c14.016,0,32.946-0.28,36.11-0.328l-0.023-1.488c0.007,0,0.017,0,0.023,0l-0.031-2c-6.554,0.101-14.28,0.197-21.71,0.26l1.697-0.17
	l-1.143-11.379h12.769v-9.183l-4.095,0.539L93.11,47.479c-0.122,5.021-0.341,8.716,1.531,8.716c2.256,0,3.341-5.311,3.341-11.866
	C97.983,37.781,100.599,32.47,98.355,32.47z M30.404,65.656c-6.964,0-10.378,0.36-10.378-6.607c0-6.958,5.64-12.604,12.603-12.604
	c6.964,0,4.207,4.909,4.207,11.872C36.836,65.275,37.367,65.656,30.404,65.656z M51.864,78.811
	c-5.49,0.045-10.806,0.072-15.356,0.069c0.358-1.516,1.168-2.89,1.587-3.532c4.078-1.527,7.463-4.38,9.48-8.088h4.13l-0.991,0.099
	L51.864,78.811z" fill="#009cff" style=""></path>
	</g>
</g></svg>